<?xml version="1.0" standalone="no"?><!DOCTYPE svg PUBLIC "-//W3C//DTD SVG 1.1//EN" "http://www.w3.org/Graphics/SVG/1.1/DTD/svg11.dtd"><svg t="1590511740582" class="icon" viewBox="0 0 1024 1024" version="1.1" xmlns="http://www.w3.org/2000/svg" p-id="4165" xmlns:xlink="http://www.w3.org/1999/xlink" width="200" height="200"><defs><style type="text/css"></style></defs><path d="M692 785.696H343.92a32.496 32.496 0 1 0 0 64.992H692a32.496 32.496 0 1 0 0-64.992z" p-id="4166" fill="#ffffff"></path><path d="M864.688 185.6h-116.176V134.4a28.448 28.448 0 0 0-27.824-28.88h-116.176v-5.776a96 96 0 1 0-192 0v5.056h-116.176a28.448 28.448 0 0 0-27.824 28.88v51.2H159.296a31.792 31.792 0 0 0-31.312 32.496V991.52a31.792 31.792 0 0 0 31.312 32.496h705.392A31.792 31.792 0 0 0 896 991.52V218.08a31.776 31.776 0 0 0-31.312-32.48zM324.8 163.2h116.176A28.448 28.448 0 0 0 468.8 134.32V99.664a40.368 40.368 0 1 1 80.688 0V133.6a28.448 28.448 0 0 0 27.824 28.88h116.176V244.8h-368v-81.6z m508.528 796.528h-642.08V250.592h77.92v23.824a28.448 28.448 0 0 0 27.824 28.88H720.64a28.448 28.448 0 0 0 27.824-28.88v-23.824h84.8z" p-id="4167" fill="#ffffff"></path><path d="M476.08 565.472a33.248 33.248 0 0 0 44.8 0l145.872-135.76a32.704 32.704 0 1 0-44.8-47.664l-124.208 115.536-62.832-58.512a32.704 32.704 0 1 0-44.8 47.664z" p-id="4168" fill="#ffffff"></path><path d="M692 639.104H343.92a32.496 32.496 0 1 0 0 64.992H692a32.496 32.496 0 1 0 0-64.992z" p-id="4169" fill="#ffffff"></path></svg>