<?xml version="1.0" standalone="no"?><!DOCTYPE svg PUBLIC "-//W3C//DTD SVG 1.1//EN" "http://www.w3.org/Graphics/SVG/1.1/DTD/svg11.dtd"><svg t="1590511885642" class="icon" viewBox="0 0 1024 1024" version="1.1" xmlns="http://www.w3.org/2000/svg" p-id="4544" width="300" height="300" xmlns:xlink="http://www.w3.org/1999/xlink"><defs><style type="text/css"></style></defs><path d="M295.2 619.4c-40.428 0-74.813 25.836-87.536 61.882h-67.173V557.52c0-17.07 13.87-30.941 30.942-30.941h271.16c16.973 18.977 41.693 30.941 69.191 30.941h123.768c51.241 0 92.816-41.549 92.816-92.825V340.931c0-51.272-41.575-92.821-92.816-92.821h-92.825v-30.942c0-51.272-41.576-92.821-92.827-92.821h-92.815c-51.251 0-92.826 41.548-92.826 92.821v92.827c0 51.272 41.575 92.821 92.826 92.821h61.875v61.879H171.433c-51.241 0-92.816 41.548-92.816 92.825v185.643h123.759v154.705h458.219c-34.653-36.139-55.993-85.21-55.993-139.233 0-54.026 21.34-103.098 55.993-139.233H295.2z m61.884-278.469c-17.072 0-30.942-13.884-30.942-30.937v-92.827c0-17.052 13.871-30.937 30.942-30.937H449.9c17.072 0 30.942 13.884 30.942 30.937v36.623c-35.954 12.781-61.883 46.776-61.883 87.141h-61.875z" p-id="4545" fill="#ffffff"></path><path d="M805.719 619.4c-76.894 0-139.234 62.336-139.234 139.233s62.341 139.233 139.234 139.233c76.901 0 139.233-62.336 139.233-139.233S882.62 619.4 805.719 619.4z m46.417 170.174h-15.477v15.472c0 17.103-13.833 30.941-30.94 30.941-17.099 0-30.942-13.839-30.942-30.941v-15.472h-15.466c-17.099 0-30.942-13.839-30.942-30.94 0-17.104 13.844-30.943 30.942-30.943h15.466v-15.47c0-17.1 13.844-30.938 30.942-30.938 17.107 0 30.94 13.839 30.94 30.938v15.47h15.477c17.099 0 30.933 13.839 30.933 30.943-0.001 17.101-13.835 30.94-30.933 30.94z" p-id="4546" fill="#ffffff"></path></svg>