<?xml version="1.0" standalone="no"?><!DOCTYPE svg PUBLIC "-//W3C//DTD SVG 1.1//EN" "http://www.w3.org/Graphics/SVG/1.1/DTD/svg11.dtd"><svg t="1590511941179" class="icon" viewBox="0 0 1024 1024" version="1.1" xmlns="http://www.w3.org/2000/svg" p-id="4887" width="400" height="400" xmlns:xlink="http://www.w3.org/1999/xlink"><defs><style type="text/css"></style></defs><path d="M903.9 733.6H119.5c-47.3 0-85.8-38.5-85.8-85.8V365.6c0-11.3 9.2-20.5 20.5-20.5s20.5 9.2 20.5 20.5v282.1c0 24.7 20.1 44.8 44.8 44.8h784.4c24.7 0 44.8-20.1 44.8-44.8V204.8c0-24.7-20.1-44.8-44.8-44.8H119.5c-24.7 0-44.8 20.1-44.8 44.8v73.8c0 11.3-9.2 20.5-20.5 20.5s-20.5-9.2-20.5-20.5v-73.8c0-47.3 38.5-85.8 85.8-85.8h784.4c47.3 0 85.8 38.5 85.8 85.8v442.9c0 47.4-38.5 85.9-85.8 85.9z" p-id="4888" fill="#ffffff"></path><path d="M246.3 586.7c-11.3 0-20.5-9.2-20.5-20.5V338.3c0-11.3 9.2-20.5 20.5-20.5s20.5 9.2 20.5 20.5v227.9c-0.1 11.3-9.2 20.5-20.5 20.5zM379 586.7c-11.3 0-20.5-9.2-20.5-20.5v-114c0-11.3 9.2-20.5 20.5-20.5s20.5 9.2 20.5 20.5v114c0 11.3-9.2 20.5-20.5 20.5zM511.7 586.7c-11.3 0-20.5-9.2-20.5-20.5V313.6c0-11.3 9.2-20.5 20.5-20.5s20.5 9.2 20.5 20.5v252.6c0 11.3-9.2 20.5-20.5 20.5zM644.4 586.7c-11.3 0-20.5-9.2-20.5-20.5V362.3c0-11.3 9.2-20.5 20.5-20.5s20.5 9.2 20.5 20.5v203.9c0 11.3-9.2 20.5-20.5 20.5zM777.1 586.7c-11.3 0-20.5-9.2-20.5-20.5V427.6c0-11.3 9.2-20.5 20.5-20.5s20.5 9.2 20.5 20.5v138.6c0 11.3-9.2 20.5-20.5 20.5z" p-id="4889" fill="#ffffff"></path><path d="M142.2 928.2c-3.3 0-6.6-0.8-9.7-2.5-10-5.4-13.7-17.8-8.3-27.8l105-194.6c5.4-10 17.8-13.7 27.8-8.3 10 5.4 13.7 17.8 8.3 27.8l-105 194.6c-3.7 6.9-10.8 10.8-18.1 10.8zM881.1 928.2c-7.3 0-14.3-3.9-18-10.8l-105-194.6c-5.4-10-1.7-22.4 8.3-27.8 10-5.4 22.4-1.7 27.8 8.3l105 194.6c5.4 10 1.7 22.4-8.3 27.8-3.1 1.7-6.5 2.5-9.8 2.5z" p-id="4890" fill="#ffffff"></path></svg>